# xmcd CD database file
#
# Track frame offsets:
#	150
#	18940
#	37007
#	54375
#	67855
#	84310
#	104027
#	117210
#	132570
#	145790
#	161975
#	176725
#	196202
#
# Disc length: 2898 seconds
#
# Revision: 3
# Processed by: cddbd v1.5.2PL0 Copyright (c) Steve Scherf et al.
# Submitted via: CDex 1.51
#
DISCID=b50b500d
DTITLE=John Hiatt - Y'all Caught?
DYEAR=1989
DGENRE=Rock
TTITLE0=The Crush
TTITLE1=She Said The Same Things To Me
TTITLE2=Love Like Blood
TTITLE3=Slug Line
TTITLE4=She Loves The Jerk
TTITLE5=My Edge Of The Razor
TTITLE6=Pink Bedroom
TTITLE7=It Hasn't Happened Yet
TTITLE8=Radio Girl
TTITLE9=I Look For Love
TTITLE10=Washable Ink
TTITLE11=Riding With The King
TTITLE12=When We Ran
EXTD=YEAR: 1989
EXTT0=
EXTT1=
EXTT2=
EXTT3=
EXTT4=
EXTT5=
EXTT6=
EXTT7=
EXTT8=
EXTT9=
EXTT10=
EXTT11=
EXTT12=
PLAYORDER=
